# xmcd
#
# Track frame offsets:
#	150
#	20343
#	38879
#	48859
#	70155
#	88722
#	108251
#	119744
#	142193
#	162751
#	189051
#	213575
#	232291
#	249463
#	271283
#	298013
#
# Disc length: 4103 seconds
#
# Revision: 1
# Processed by: cddbd v1.5.2PL0 Copyright (c) Steve Scherf et al.
# Submitted via: audiograbber 1.83.01
#
DISCID=eb100510
DTITLE=Nate Dogg - Ghetto Preacher
DYEAR=1998
DGENRE=R&B
TTITLE0=Nate Dogg feat. Warren G - Nobody does it better
TTITLE1=Nate Dogg - Hardest Man in Town
TTITLE2=Nate Dogg - Intro to G-Funk (Comm. 1)
TTITLE3=Nate Dogg - G-Funk
TTITLE4=Nate Dogg feat. Kurupt the Kingpin - First we pray
TTITLE5=Nate Dogg - My World
TTITLE6=Nate Dogg - Crazy, Dangerous
TTITLE7=Nate Dogg feat. Daz Dillinger - These Days
TTITLE8=Nate Dogg feat. Tray Deee - Bag O'Weed
TTITLE9=Nate Dogg feat. Big Chuck - Dirty Hoe's Draws
TTITLE10=Nate Dogg feat. Danny Means - Scared of Love
TTITLE11=Nate Dogg feat. 2Pac - Me and My Homies
TTITLE12=Nate Dogg - Because I got a girl
TTITLE13=Nate Dogg - My Money
TTITLE14=Nate Dogg feat. Snoop Doggy Dogg - Never leave me alone
TTITLE15=Nate Dogg - Last Prayer (Comm. 2)
EXTD=
EXTT0=
EXTT1=
EXTT2=
EXTT3=
EXTT4=
EXTT5=
EXTT6=
EXTT7=
EXTT8=
EXTT9=
EXTT10=
EXTT11=
EXTT12=
EXTT13=
EXTT14=
EXTT15=
PLAYORDER=
